# File created by Blade
# Date/Time:  Wed Jan 21 16:14:13 2015
# Frame Rate: 120.000 fps
#------------------------------------------------------
:FULLY-SPECIFIED
:DEGREES
358
root 18.626144 35.653970 -19.035379 -180.829330 -4.679621 -179.248019
Spine -12.822411 1.397033 -1.181509
Head 10.053564 -6.286736 -2.272494
LeftShoulder 30.291965 -52.183067 -5.333247
LeftArm 45.286794 24.735024 -64.446674
LeftForeArm 15.686012 -0.000000 -2.523702
LeftHand -5.169211 -0.000000 -4.118597
LeftHandThumb1 -26.253704 0.000000 33.147579
RightShoulder 17.597535 14.622145 -11.765343
RightArm 69.445314 1.817850 49.909035
RightForeArm -37.291613 -0.000000 6.749989
RightHand 4.385948 -0.000000 12.557107
RightHandThumb1 -24.326973 -0.000000 -32.862282
LeftUpLeg 6.063113 7.964250 0.922275
LeftLeg -4.800270 -0.000000 0.000000
LeftFoot -18.658548 24.459840 -10.997193
LeftToeBase 27.066319 -0.000000 -0.000000
RightUpLeg 5.873527 -9.999130 0.570047
RightLeg -2.530295 -0.000000 0.000000
RightFoot -20.131140 -27.501620 13.576154
RightToeBase 23.908568 -0.000000 -0.000000
359
root 18.630589 35.655494 -19.021297 -180.899415 -4.719180 -179.252468
Spine -12.685467 1.374013 -1.206558
Head 10.015363 -6.282388 -2.186966
LeftShoulder 30.641573 -52.058776 -5.564814
LeftArm 45.422891 25.043565 -64.501137
LeftForeArm 16.141741 -0.000000 -2.517193
LeftHand -5.000358 0.000000 -4.233424
LeftHandThumb1 -26.253704 0.000000 33.147579
RightShoulder 17.819286 14.603511 -11.836382
RightArm 69.481488 1.574942 49.788057
RightForeArm -37.435836 0.000000 6.745080
RightHand 4.363262 -0.000000 12.572600
RightHandThumb1 -24.326973 -0.000000 -32.862282
LeftUpLeg 6.087542 7.960891 0.933798
LeftLeg -4.764964 -0.000000 0.000000
LeftFoot -18.624083 24.404776 -10.968307
LeftToeBase 27.088626 -0.000000 -0.000000
RightUpLeg 5.906537 -9.934593 0.568340
RightLeg -2.491828 -0.000000 0.000000
RightFoot -20.161817 -27.586681 13.614039
RightToeBase 23.903046 -0.000000 -0.000000
360
root 18.633836 35.656306 -19.010425 -180.970245 -4.816036 -179.263557
Spine -12.562059 1.297327 -1.240479
Head 10.004691 -6.285473 -2.101815
LeftShoulder 30.959703 -51.918877 -5.766694
LeftArm 45.570056 25.389421 -64.448296
LeftForeArm 16.507576 -0.000000 -2.480369
LeftHand -5.101275 0.000000 -4.075752
LeftHandThumb1 -26.253704 0.000000 33.147579
RightShoulder 18.008738 14.552008 -11.883677
RightArm 69.514430 1.437558 49.788983
RightForeArm -37.550581 -0.000000 6.773487
RightHand 4.239458 -0.000000 12.802549
RightHandThumb1 -24.326973 -0.000000 -32.862282
LeftUpLeg 6.111323 7.866789 0.929725
LeftLeg -4.732051 -0.000000 0.000000
LeftFoot -18.599249 24.413121 -10.933602
LeftToeBase 27.102548 -0.000000 -0.000000
RightUpLeg 5.968323 -9.990993 0.551703
RightLeg -2.483892 -0.000000 0.000000
RightFoot -20.167149 -27.613377 13.619993
RightToeBase 23.872869 -0.000000 -0.000000
361
root 18.637908 35.657345 -19.001155 -181.077681 -4.891406 -179.270855
Spine -12.385164 1.223242 -1.279096
Head 9.952535 -6.304709 -1.969554
LeftShoulder 31.158084 -51.769966 -5.851769
LeftArm 45.786550 25.745002 -64.291170
LeftForeArm 16.752140 0.000000 -2.557483
LeftHand -4.943906 -0.000000 -3.784322
LeftHandThumb1 -26.253704 0.000000 33.147579
RightShoulder 18.181585 14.487434 -11.858659
RightArm 69.503787 1.236326 49.383328
RightForeArm -37.440354 -0.000000 6.924323
RightHand 3.964526 -0.000000 13.000500
RightHandThumb1 -24.326973 -0.000000 -32.862282
LeftUpLeg 6.177777 7.806217 0.940497
LeftLeg -4.702349 -0.000000 0.000000
LeftFoot -18.604529 24.377935 -10.958550
LeftToeBase 27.160070 -0.000000 -0.000000
RightUpLeg 6.065372 -10.024202 0.533757
RightLeg -2.472416 -0.000000 0.000000
RightFoot -20.181086 -27.637377 13.617398
RightToeBase 23.907532 -0.000000 -0.000000
362
root 18.641673 35.658846 -18.991220 -181.150769 -4.943849 -179.279797
Spine -12.260453 1.175766 -1.298018
Head 9.926051 -6.296085 -1.898208
LeftShoulder 31.343265 -51.659835 -5.950946
LeftArm 45.855839 26.030759 -64.182591
LeftForeArm 17.189749 -0.000000 -2.576297
LeftHand -4.724612 0.000000 -3.746873
LeftHandThumb1 -26.253704 0.000000 33.147579
RightShoulder 18.294122 14.471666 -11.920393
RightArm 69.540888 1.259656 49.814138
RightForeArm -38.310687 -0.000000 6.804527
RightHand 3.836116 -0.000000 13.088963
RightHandThumb1 -24.326973 -0.000000 -32.862282
LeftUpLeg 6.217480 7.759030 0.943888
LeftLeg -4.680131 -0.000000 0.000000
LeftFoot -18.560607 24.383103 -10.926113
LeftToeBase 27.122698 -0.000000 -0.000000
RightUpLeg 6.122487 -10.013532 0.522723
RightLeg -2.458843 -0.000000 0.000000
RightFoot -20.193808 -27.689710 13.643319
RightToeBase 23.921962 -0.000000 -0.000000
363
root 18.644306 35.659344 -18.984751 -181.277439 -4.976183 -179.282431
Spine -12.099236 1.131872 -1.336026
Head 9.992162 -6.298169 -1.758913
LeftShoulder 31.708833 -51.598805 -6.113421
LeftArm 45.659894 26.156924 -64.134673
LeftForeArm 17.624389 -0.000000 -2.567766
LeftHand -4.836033 0.000000 -3.482061
LeftHandThumb1 -26.253704 0.000000 33.147579
RightShoulder 18.662024 14.616342 -11.663111
RightArm 68.904413 0.461029 47.095477
RightForeArm -36.098009 -0.000000 7.432583
RightHand 3.244376 -0.000000 13.590075
RightHandThumb1 -24.326973 -0.000000 -32.862282
LeftUpLeg 6.316258 7.736366 0.959922
LeftLeg -4.652741 -0.000000 0.000000
LeftFoot -18.545720 24.367828 -10.919153
LeftToeBase 27.077123 -0.000000 -0.000000
RightUpLeg 6.236302 -10.025858 0.502660
RightLeg -2.441062 -0.000000 0.000000
RightFoot -20.208067 -27.697130 13.656193
RightToeBase 23.921338 -0.000000 -0.000000
364
root 18.648072 35.660019 -18.976045 -181.350061 -4.996084 -179.281590
Spine -12.003175 1.098004 -1.354446
Head 10.063255 -6.292505 -1.674323
LeftShoulder 31.930597 -51.525888 -6.184377
LeftArm 45.477622 26.258674 -64.044362
LeftForeArm 17.785332 -0.000000 -2.586913
LeftHand -4.611547 -0.000000 -3.437457
LeftHandThumb1 -26.253704 0.000000 33.147579
RightShoulder 18.847769 14.562091 -11.584437
RightArm 68.697450 0.260937 46.202656
RightForeArm -35.785609 -0.000000 7.519296
RightHand 3.078261 0.000000 13.701415
RightHandThumb1 -24.326973 -0.000000 -32.862282
LeftUpLeg 6.367228 7.746077 0.973623
LeftLeg -4.652738 -0.000000 0.000000
LeftFoot -18.541274 24.353331 -10.930637
LeftToeBase 26.987477 -0.000000 -0.000000
RightUpLeg 6.292954 -10.023091 0.498452
RightLeg -2.430290 -0.000000 0.000000
RightFoot -20.209040 -27.701029 13.651626
RightToeBase 23.867815 -0.000000 -0.000000
365
root 18.650680 35.662426 -18.968878 -181.428955 -4.998461 -179.296145
Spine -11.890306 1.107348 -1.342729
Head 10.098326 -6.275140 -1.712101
LeftShoulder 32.196322 -51.525820 -6.375244
LeftArm 45.134754 26.367462 -63.877672
LeftForeArm 17.762559 0.000000 -2.487549
LeftHand -4.576081 -0.000000 -3.435163
LeftHandThumb1 -26.253704 0.000000 33.147579
RightShoulder 18.658127 14.291230 -11.942301
RightArm 69.261590 1.261623 49.484413
RightForeArm -39.435877 -0.000000 6.614895
RightHand 3.383520 -0.000000 13.187963
RightHandThumb1 -24.326973 -0.000000 -32.862282
LeftUpLeg 6.430747 7.755539 0.972472
LeftLeg -4.640268 -0.000000 0.000000
LeftFoot -18.517032 24.333692 -10.949619
LeftToeBase 27.135456 -0.000000 -0.000000
RightUpLeg 6.358121 -10.017033 0.474470
RightLeg -2.417920 -0.000000 0.000000
RightFoot -20.205117 -27.696034 13.669410
RightToeBase 23.881588 -0.000000 -0.000000
366
root 18.653675 35.663814 -18.959850 -181.476475 -5.017967 -179.297665
Spine -11.830893 1.064146 -1.349110
Head 10.198264 -6.260976 -1.669067
LeftShoulder 32.313068 -51.397930 -6.372694
LeftArm 44.873706 26.350950 -63.629840
LeftForeArm 17.711589 -0.000000 -2.347114
LeftHand -4.393603 -0.000000 -3.618847
LeftHandThumb1 -26.253704 0.000000 33.147579
RightShoulder 18.760622 14.233204 -11.968871
RightArm 69.015912 1.489872 49.608740
RightForeArm -39.276486 -0.000000 6.574549
RightHand 3.603733 -0.000000 13.345644
RightHandThumb1 -24.326973 -0.000000 -32.862282
LeftUpLeg 6.448012 7.750881 0.979629
LeftLeg -4.616330 -0.000000 0.000000
LeftFoot -18.494456 24.313470 -10.930652
LeftToeBase 27.169495 -0.000000 -0.000000
RightUpLeg 6.387475 -10.061938 0.465331
RightLeg -2.406023 -0.000000 0.000000
RightFoot -20.201030 -27.643241 13.746802
RightToeBase 23.743035 -0.000000 -0.000000
367
root 18.655969 35.664813 -18.953598 -181.551476 -5.029640 -179.297827
Spine -11.736986 1.026702 -1.344390
Head 10.295526 -6.252230 -1.667934
LeftShoulder 32.484773 -51.368659 -6.422267
LeftArm 44.416336 26.299116 -63.410205
LeftForeArm 17.776398 -0.000000 -2.140020
LeftHand -4.068149 -0.000000 -3.763202
LeftHandThumb1 -26.253704 0.000000 33.147579
RightShoulder 18.786356 14.215705 -12.023946
RightArm 68.752882 1.709885 49.921930
RightForeArm -39.353937 -0.000000 6.564784
RightHand 3.648981 -0.000000 13.322453
RightHandThumb1 -24.326973 -0.000000 -32.862282
LeftUpLeg 6.505891 7.740131 0.990448
LeftLeg -4.602137 -0.000000 0.000000
LeftFoot -18.444742 24.334861 -10.855903
LeftToeBase 27.097074 -0.000000 -0.000000
RightUpLeg 6.453118 -10.103908 0.450363
RightLeg -2.398056 -0.000000 0.000000
RightFoot -20.175777 -27.615368 13.662654
RightToeBase 23.858388 -0.000000 -0.000000
368
root 18.659513 35.665947 -18.946463 -181.625471 -5.012409 -179.294220
Spine -11.648332 0.996161 -1.346956
Head 10.395649 -6.242610 -1.612723
LeftShoulder 32.627059 -51.341722 -6.453251
LeftArm 43.988212 26.352322 -62.995826
LeftForeArm 17.931287 -0.000000 -2.002965
LeftHand -3.799438 -0.000000 -3.742625
LeftHandThumb1 -26.253704 0.000000 33.147579
RightShoulder 18.816210 14.135399 -11.975203
RightArm 68.357478 1.635233 48.995369
RightForeArm -38.239204 -0.000000 6.782658
RightHand 3.695442 0.000000 13.168265
RightHandThumb1 -24.326973 -0.000000 -32.862282
LeftUpLeg 6.569441 7.784156 1.009316
LeftLeg -4.601070 -0.000000 0.000000
LeftFoot -18.431945 24.307508 -10.880996
LeftToeBase 27.089379 -0.000000 -0.000000
RightUpLeg 6.510418 -10.133873 0.443481
RightLeg -2.389335 -0.000000 0.000000
RightFoot -20.153206 -27.565320 13.635769
RightToeBase 23.902243 -0.000000 -0.000000
369
root 18.663108 35.666704 -18.937657 -181.659820 -4.989662 -179.286904
Spine -11.613549 0.989874 -1.340961
Head 10.518976 -6.301089 -1.582533
LeftShoulder 32.633687 -51.264446 -6.379095
LeftArm 43.666999 26.380314 -62.512977
LeftForeArm 17.966477 0.000000 -1.914970
LeftHand -3.686797 -0.000000 -3.808915
LeftHandThumb1 -26.253704 0.000000 33.147579
RightShoulder 18.783221 14.044458 -12.002669
RightArm 67.897115 1.753499 48.532928
RightForeArm -37.562326 -0.000000 7.062697
RightHand 4.014677 -0.000000 13.120923
RightHandThumb1 -24.326973 -0.000000 -32.862282
LeftUpLeg 6.584657 7.820778 1.026801
LeftLeg -4.588734 -0.000000 0.000000
LeftFoot -18.425254 24.291628 -10.856896
LeftToeBase 27.132268 -0.000000 -0.000000
RightUpLeg 6.513588 -10.161526 0.446295
RightLeg -2.359259 -0.000000 0.000000
RightFoot -20.150002 -27.508505 13.633273
RightToeBase 23.930255 -0.000000 -0.000000
